<?xml version="1.0" standalone="no"?>
<!DOCTYPE svg PUBLIC "-//W3C//DTD SVG 20010904//EN"
 "http://www.w3.org/TR/2001/REC-SVG-20010904/DTD/svg10.dtd">
<svg version="1.0" xmlns="http://www.w3.org/2000/svg"
 width="102.000000pt" height="103.000000pt" viewBox="0 0 102.000000 103.000000"
 preserveAspectRatio="xMidYMid meet">
<metadata>
Created by potrace 1.16, written by Peter Selinger 2001-2019
</metadata>
<g transform="translate(0.000000,103.000000) scale(0.100000,-0.100000)"
fill="#000000" stroke="none">
<path d="M82 980 c-12 -5 -27 -21 -32 -35 -6 -16 -10 -191 -10 -436 l0 -411
29 -29 29 -29 415 0 415 0 31 26 31 26 0 420 0 420 -29 29 -29 29 -414 -1
c-227 0 -423 -4 -436 -9z m868 -30 c19 -19 20 -33 20 -432 0 -227 -4 -418 -8
-424 -21 -32 -53 -34 -456 -34 -393 0 -407 1 -426 20 -19 19 -20 33 -20 435 0
402 1 416 20 435 19 19 33 20 435 20 402 0 416 -1 435 -20z"/>
<path d="M490 879 c0 -79 -12 -83 -30 -9 -7 30 -17 50 -26 50 -17 0 -18 -22
-3 -89 6 -28 9 -60 7 -71 -2 -17 -10 -11 -47 35 -63 78 -77 57 -22 -33 28 -46
45 -89 51 -128 8 -48 23 -110 56 -221 2 -9 25 -13 69 -13 73 0 76 4 50 67 -21
51 -20 59 24 111 72 88 76 152 10 198 l-39 27 -23 -21 c-13 -12 -26 -22 -28
-22 -3 0 -6 31 -7 68 -2 125 -42 174 -42 51z"/>
<path d="M404 336 c-3 -8 -4 -23 -2 -33 3 -15 15 -18 83 -19 49 -1 83 3 87 10
5 7 8 6 8 -4 0 -13 1 -13 10 0 5 8 10 10 10 4 0 -7 27 -12 75 -12 42 -1 75 3
75 8 0 6 -4 10 -10 10 -5 0 -10 11 -10 25 0 36 -30 33 -31 -2 l-1 -28 -11 28
c-14 36 -34 34 -51 -5 l-14 -33 -1 33 c-1 32 -24 46 -34 20 -4 -10 -6 -10 -6
0 -2 23 -29 12 -38 -15 l-10 -28 -6 28 c-9 35 -34 35 -48 0 -7 -16 -13 -23
-16 -15 -3 6 -11 12 -19 12 -9 0 -12 -4 -9 -10 3 -5 1 -10 -4 -10 -6 0 -11 7
-11 15 0 8 9 15 20 15 11 0 20 5 20 10 0 16 -50 12 -56 -4z"/>
<path d="M481 199 c-6 -18 -11 -35 -11 -38 0 -10 82 -7 98 2 6 5 12 5 12 0 0
-4 5 -1 10 7 8 13 10 12 10 -2 0 -20 44 -26 55 -8 4 7 11 7 18 2 17 -13 70 -9
75 6 2 6 -1 12 -7 12 -6 0 -11 11 -11 25 0 16 -6 25 -15 25 -10 0 -15 -10 -15
-32 l-1 -33 -14 33 c-8 17 -19 32 -24 32 -6 0 -17 -15 -25 -32 l-14 -33 -1 33
c-1 33 -9 40 -28 21 -8 -8 -13 -8 -17 0 -12 19 -23 12 -31 -16 l-7 -28 -10 28
c-13 36 -33 34 -47 -4z"/>
</g>
</svg>
